:SAMPLES-PER-SECOND 30
:FRAME-RANGE 1-668
:FULLY-SPECIFIED
:DEGREES
126
root  1.82764 40.0787 25.4468 -175.287 -9.62669 -173.558
RightUpLeg  -13.3259 -6.52082 2.76569
RightLeg  27.0506 4.89777 2.48296
RightFoot  -4.76785 -0.562733 9.21303
RightToes  5.38607e-012 1.2921e-014 -6.02303e-014
Spine  -4.17062 -5.30786 -6.73918
Spine1  16.2308 -10.6272 15.9355
HEad  21.1684 33.4526 -2.89526
LeftShoulder1  0.825923 -12.7157 3.49087
LeftArm  52.2882 16.5161 -20.2771
LeftForeArm  3.37168 -33.7134 -7.31475
LeftHand  0.672306 -1.57462 -11.0764
RightShoulder  0.502281 -0.720409 12.0635
RightArm  -55.7015 25.6648 -10.2121
RightForeArm  57.8682 33.5003 4.28705
RightHand  1.33618 8.38207 10.8078
LeftUpLeg  -16.997 -3.52701 12.0367
LeftLeg  27.9508 -0.593651 -0.00243784
LeftFoot  -5.46311 0.557914 -10.2102
LeftToes  -6.11857e-011 5.00151e-011 -2.22593e-011
127
root  1.85504 40.2256 25.3996 -175.233 -8.16431 -175.089
RightUpLeg  -12.7158 -5.43253 1.11118
RightLeg  26.1902 5.195 2.55038
RightFoot  -4.58832 -0.550165 8.77729
RightToes  5.38607e-012 1.2921e-014 -6.02303e-014
Spine  -5.00756 -4.09758 -5.76214
Spine1  17.0662 -8.01687 11.7071
HEad  20.9099 35.0077 -2.54875
LeftShoulder1  0.602724 -11.3386 4.67754
LeftArm  55.354 11.0419 -13.718
LeftForeArm  0.867216 -37.9881 -8.69855
LeftHand  0.937982 -2.47294 -13.6199
RightShoulder  0.896809 0.961501 14.0489
RightArm  -47.9011 19.6433 -5.08865
RightForeArm  57.4012 39.0581 5.67224
RightHand  1.25377 7.92704 10.489
LeftUpLeg  -15.6193 -2.92138 10.3124
LeftLeg  26.3862 0.124249 0.404893
LeftFoot  -4.17027 0.69762 -10.7119
LeftToes  -6.11857e-011 5.00151e-011 -2.22593e-011
128
root  1.85471 40.2718 25.3766 -174.56 -6.36624 -176.718
RightUpLeg  -13.0709 -4.09354 -0.556267
RightLeg  25.7745 5.14543 2.47924
RightFoot  -5.03724 -0.510482 8.62967
RightToes  5.38607e-012 1.2921e-014 -6.02303e-014
Spine  -5.87343 -2.76932 -4.74514
Spine1  16.921 -5.2274 7.62405
HEad  21.1322 36.5946 -1.89072
LeftShoulder1  0.305898 -9.4166 6.63615
LeftArm  55.3757 5.60843 -9.99892
LeftForeArm  -1.48165 -39.369 -9.27753
LeftHand  1.10429 -2.80794 -15.3587
RightShoulder  1.44514 3.33514 14.991
RightArm  -39.0707 11.468 -0.689564
RightForeArm  58.339 46.0515 7.67557
RightHand  1.01268 6.66226 9.35938
LeftUpLeg  -14.915 -1.50299 8.44458
LeftLeg  24.951 0.482065 0.581944
LeftFoot  -3.55179 0.754274 -10.7436
LeftToes  -6.11857e-011 5.00151e-011 -2.22593e-011
129
root  1.84874 40.2474 25.3845 -173.985 -3.96861 -178.223
RightUpLeg  -13.7363 -2.24763 -2.22195
RightLeg  25.7386 5.34765 2.58339
RightFoot  -5.81145 -0.429596 8.06156
RightToes  5.38607e-012 1.2921e-014 -6.02303e-014
Spine  -6.09897 -0.809426 -3.30385
Spine1  16.5389 -1.85167 3.39943
HEad  20.794 37.7754 -2.29546
LeftShoulder1  0.216873 -7.38151 7.06562
LeftArm  52.2973 -0.684057 -6.42088
LeftForeArm  -2.41729 -39.3538 -9.32887
LeftHand  1.19146 -3.07668 -16.0265
RightShoulder  1.71087 4.56396 15.0011
RightArm  -32.4462 3.46968 3.26283
RightForeArm  61.3819 53.0722 10.1503
RightHand  0.753436 4.42239 8.60323
LeftUpLeg  -14.1657 0.269638 6.64433
LeftLeg  23.6743 1.04211 0.838759
LeftFoot  -3.57189 0.754932 -10.7792
LeftToes  -6.11857e-011 5.00151e-011 -2.22593e-011
130
root  1.79728 40.1692 25.4109 -173.512 -0.585068 -179.612
RightUpLeg  -14.7597 0.272089 -4.00976
RightLeg  26.024 5.85234 2.88567
RightFoot  -6.75905 -0.352333 7.64381
RightToes  5.38607e-012 1.2921e-014 -6.02303e-014
Spine  -5.31417 1.72309 -0.822384
Spine1  15.412 2.29653 -1.62213
HEad  20.1397 38.695 -2.47196
LeftShoulder1  0.19919 -3.81046 6.18324
LeftArm  48.7949 -9.78891 -3.20899
LeftForeArm  -6.64798 -37.1208 -8.86843
LeftHand  1.31526 -3.59077 -16.6456
RightShoulder  1.99762 5.95941 14.8302
RightArm  -28.447 -5.80224 6.60965
RightForeArm  65.4649 59.7952 13.3805
RightHand  0.603337 2.72356 8.41056
LeftUpLeg  -13.3601 1.55258 4.78281
LeftLeg  22.6285 2.81193 1.62837
LeftFoot  -4.1343 0.725083 -11.0949
LeftToes  -6.11857e-011 5.00151e-011 -2.22593e-011
131
root  1.73304 40.0676 25.4215 -172.857 3.10599 179.327
RightUpLeg  -15.9444 2.74904 -5.54288
RightLeg  25.8593 6.57338 3.24448
RightFoot  -7.74339 -0.271182 6.94695
RightToes  5.38607e-012 1.2921e-014 -6.02303e-014
Spine  -4.64021 4.32017 2.50857
Spine1  14.5607 6.65053 -7.29209
HEad  19.6061 39.5615 -2.33384
LeftShoulder1  0.181219 -0.284639 3.61133
LeftArm  39.287 -17.8471 1.66767
LeftForeArm  -6.20587 -35.0353 -8.22332
LeftHand  1.27071 -3.3603 -16.5197
RightShoulder  2.16898 7.24311 13.7453
RightArm  -26.0064 -15.6494 11.2843
RightForeArm  71.7559 66.1894 17.8921
RightHand  0.368745 0.467188 7.28375
LeftUpLeg  -12.9772 2.30969 3.14949
LeftLeg  21.8874 5.39731 2.72805
LeftFoot  -4.9295 0.664443 -11.3082
LeftToes  -6.11857e-011 5.00151e-011 -2.22593e-011
132
root  1.68257 40.0159 25.4425 -172.298 6.43773 178.651
RightUpLeg  -16.8356 5.04369 -6.65168
RightLeg  25.0907 7.11047 3.40807
RightFoot  -8.23647 -0.232808 6.51485
RightToes  5.38607e-012 1.2921e-014 -6.02303e-014
Spine  -3.78141 6.3703 5.11815
Spine1  13.7404 10.0472 -11.6704
HEad  18.8274 41.6302 -2.48302
LeftShoulder1  -0.0309469 3.69495 0.372148
LeftArm  26.6621 -24.0863 6.65084
LeftForeArm  -5.12202 -32.9084 -7.56915
LeftHand  1.27906 -3.46035 -16.434
RightShoulder  2.1816 7.76193 12.8103
RightArm  -24.2602 -22.4067 16.5211
RightForeArm  79.3703 71.0905 23.2866
RightHand  0.169943 -1.82874 5.95337
LeftUpLeg  -12.679 3.61147 1.96791
LeftLeg  21.0313 7.32856 3.47368
LeftFoot  -5.30019 0.633988 -11.3855
LeftToes  -6.11857e-011 5.00151e-011 -2.22593e-011
133
root  1.68834 39.9462 25.4604 -171.72 8.8056 177.861
RightUpLeg  -17.7329 7.39402 -7.80089
RightLeg  24.4914 6.76901 3.14934
RightFoot  -9.03866 -0.190401 6.40797
RightToes  5.38607e-012 1.2921e-014 -6.02303e-014
Spine  -3.35707 7.28063 5.64887
Spine1  12.7418 11.6963 -14.3179
HEad  18.4379 45.0105 -2.14578
LeftShoulder1  -0.294045 5.99923 -3.01728
LeftArm  11.7274 -24.8272 11.8294
LeftForeArm  -2.77328 -32.4768 -7.32551
LeftHand  1.37264 -3.70026 -17.1557
RightShoulder  2.18902 8.17824 12.093
RightArm  -23.4088 -25.1611 22.4332
RightForeArm  88.7248 73.7151 27.0897
RightHand  0.0262715 -4.089 4.65096
LeftUpLeg  -12.9887 4.6722 0.908249
LeftLeg  20.8378 8.41007 3.81777
LeftFoot  -5.52361 0.6179 -11.4809
LeftToes  -6.11857e-011 5.00151e-011 -2.22593e-011
